<svg version="1.1" xmlns="http://www.w3.org/2000/svg" xmlns:xlink="http://www.w3.org/1999/xlink" width="512.000000pt" height="512.000000pt" viewBox="0,0,256,256"><g fill="#ffffff" fill-rule="nonzero" stroke="none" stroke-width="1" stroke-linecap="butt" stroke-linejoin="miter" stroke-miterlimit="10" stroke-dasharray="" stroke-dashoffset="0" font-family="none" font-weight="none" font-size="none" text-anchor="none" style="mix-blend-mode: normal"><g transform="translate(-0.0387,0.13404) scale(0.5,0.5)"><g transform="translate(0,512) scale(0.1,-0.1)"><path d="M3630,3845c-22,-10 -235,-216 -555,-535l-520,-520l-515,516c-283,283 -527,522 -542,530c-42,22 -119,18 -158,-8c-63,-44 -87,-129 -56,-201c8,-18 237,-254 530,-547l516,-515l-519,-520c-286,-286 -525,-533 -530,-548c-15,-40 -14,-103 4,-136c35,-70 119,-104 192,-81c30,10 149,123 561,533l522,522l528,-527c567,-567 549,-551 634,-534c92,18 157,140 117,219c-6,12 -246,257 -532,544l-522,523l522,522c287,288 527,536 532,551c49,129 -87,266 -209,212z"></path></g></g></g></svg>