<svg version="1.1" xmlns="http://www.w3.org/2000/svg" xmlns:xlink="http://www.w3.org/1999/xlink" width="1200.000000pt" height="1200.000000pt" viewBox="0,0,256,256"><g fill="#ffffff" fill-rule="nonzero" stroke="none" stroke-width="1" stroke-linecap="butt" stroke-linejoin="miter" stroke-miterlimit="10" stroke-dasharray="" stroke-dashoffset="0" font-family="none" font-weight="none" font-size="none" text-anchor="none" style="mix-blend-mode: normal"><g transform="translate(0.00889,-0.00833) scale(0.21333,0.21333)"><g transform="translate(0,1200) scale(0.1,-0.1)"><path d="M1350,9734c-297,-64 -524,-292 -584,-586c-83,-402 181,-798 586,-882c70,-15 507,-16 4648,-16c4140,0 4578,2 4648,16c197,41 370,158 477,324c80,123 112,220 122,370c23,367 -234,699 -599,774c-70,14 -520,16 -4655,15c-3885,0 -4588,-3 -4643,-15z"></path><path d="M1350,6734c-297,-64 -524,-292 -584,-586c-83,-402 181,-798 586,-882c70,-15 507,-16 4648,-16c4140,0 4578,2 4648,16c197,41 370,158 477,324c80,123 112,220 122,370c23,367 -234,699 -599,774c-70,14 -520,16 -4655,15c-3885,0 -4588,-3 -4643,-15z"></path><path d="M1350,3734c-297,-64 -524,-292 -584,-586c-83,-402 181,-798 586,-882c70,-15 507,-16 4648,-16c4140,0 4578,2 4648,16c197,41 370,158 477,324c80,123 112,220 122,370c23,367 -234,699 -599,774c-70,14 -520,16 -4655,15c-3885,0 -4588,-3 -4643,-15z"></path></g></g></g></svg>